#N canvas 63 88 450 300 12;
#X obj 174 12 inlet;
#X obj 43 89 bng 15 250 50 0 empty empty empty 17 7 0 10 -262144 -1
-1;
#X floatatom 43 250 5 0 0 0 - - -;
#X obj 43 272 outlet;
#X msg 193 115 \$1 600;
#X obj 193 142 line 0;
#X obj 193 198 sig~ 0;
#X obj 193 221 phasor~ 0;
#X obj 193 272 outlet~;
#X msg 74 159 0;
#X msg 43 107 0.9;
#X obj 174 37 rtc/smooth-line 60;
#X obj 43 206 rtc/smooth-line 7000;
#X obj 75 132 delay 200;
#X obj 273 222 osc~ 10;
#X obj 193 248 *~;
#X floatatom 207 166 5 0 0 0 - - -;
#X connect 0 0 11 0;
#X connect 1 0 10 0;
#X connect 2 0 3 0;
#X connect 4 0 5 0;
#X connect 5 0 6 0;
#X connect 5 0 16 0;
#X connect 6 0 7 0;
#X connect 7 0 15 0;
#X connect 9 0 12 0;
#X connect 10 0 12 0;
#X connect 10 0 13 0;
#X connect 11 0 1 0;
#X connect 11 0 4 0;
#X connect 12 0 2 0;
#X connect 13 0 9 0;
#X connect 14 0 15 1;
#X connect 15 0 8 0;
