#N canvas 116 390 450 300 12;
#X obj 13 15 inlet;
#X obj 207 20 inlet;
#X floatatom 13 189 5 0 0 0 - - -;
#X obj 13 212 outlet;
#X obj 13 44 list-abs/list-extend;
#X obj 13 68 list-abs/list-rev;
#X obj 13 116 list-abs/list-rev;
#X obj 13 141 list;
#X obj 13 92 list-abs/list-splat \$1, f 31;
#X obj 13 165 list-abs/list-harmonic-mean;
#X connect 0 0 4 0;
#X connect 1 0 4 1;
#X connect 2 0 3 0;
#X connect 4 0 5 0;
#X connect 5 0 8 0;
#X connect 6 0 7 0;
#X connect 7 0 4 1;
#X connect 7 0 9 0;
#X connect 8 0 6 0;
#X connect 8 2 7 0;
#X connect 9 0 2 0;
