#N canvas 411 436 450 300 12;
#X obj 48 63 mean-last-x-elems 10;
#X floatatom 48 87 5 0 0 0 - - - 0;
#X obj 185 40 bng 15 250 50 0 empty empty empty 17 7 0 10 #fcfcfc #000000
#000000;
#X floatatom 48 38 5 0 0 0 - - - 0;
#X connect 0 0 1 0;
#X connect 2 0 0 1;
#X connect 3 0 0 0;
