#N canvas 599 96 681 676 12;
#X obj 99 102 inlet;
#X obj 99 260 outlet;
#X obj 260 260 outlet;
#N canvas -8 -8 1920 997 BOLD 0;
#X obj 435 139 inlet;
#X obj 29 561 outlet;
#X obj 103 561 outlet;
#X obj 29 154 r closeness;
#X obj 29 180 tgl 15 0 empty empty empty 17 7 0 10 -262144 -1 -1 0
1;
#X obj 29 200 metro 5000;
#X obj 29 227 bng 15 250 50 0 empty empty empty 17 7 0 10 -262144 -1
-1;
#X obj 29 248 random 3;
#X obj 56 225 loadbang;
#X obj 29 272 sel 0 1 2;
#X obj 29 303 bng 15 250 50 0 empty empty empty 17 7 0 10 -262144 -1
-1;
#X obj 49 303 bng 15 250 50 0 empty empty empty 17 7 0 10 -262144 -1
-1;
#X obj 69 303 bng 15 250 50 0 empty empty empty 17 7 0 10 -262144 -1
-1;
#X obj 435 165 bng 15 250 50 0 empty empty empty 17 7 0 10 -262144
-1 -1;
#X obj 570 139 inlet;
#X obj 570 165 bng 15 250 50 0 empty empty empty 17 7 0 10 -262144
-1 -1;
#X obj 655 139 inlet;
#X obj 655 165 bng 15 250 50 0 empty empty empty 17 7 0 10 -262144
-1 -1;
#X obj 29 528 line;
#X obj 103 528 line;
#X obj 103 456 r singing;
#X obj 103 480 bng 15 250 50 0 empty empty empty 17 7 0 10 -262144
-1 -1;
#X msg 435 185 64 16;
#X obj 435 233 s BOLD_call_freq;
#X obj 570 185 random 5;
#X obj 570 209 + 5;
#X obj 570 233 s shyness;
#X text 435 120 call;
#X text 571 120 shyness;
#X text 655 120 laught;
#X text 30 105 envelope;
#X text 30 58 BOLD;
#X text 30 131 valores de capacitância > 700;
#X text 130 204 tempo de metro gerado pela personalidade;
#X text 103 437 melody envelope;
#X obj 655 233 s laugh_env;
#X text 132 271 escolhe random de 3 envolventes possiveis por personalidade
;
#X msg 49 353 0 10 1 100 0 500 1 550 0 600;
#X msg 29 329 0 10 1 300 0.428 500 1 550 0 1500 1 1550 0 1600;
#X msg 69 377 0 10 1 200 0.428 700 1 750 0 800;
#X msg 103 501 0.785 500 0.571 3000 0 6000;
#X msg 655 185 0.285 50 0.857 100 0.285 110 0.857 130 -50 140 0.857
150 0.285 160 0.857 170 0.285 190 0.857 200 0 210;
#X connect 0 0 13 0;
#X connect 3 0 4 0;
#X connect 4 0 5 0;
#X connect 5 0 6 0;
#X connect 6 0 7 0;
#X connect 7 0 9 0;
#X connect 8 0 6 0;
#X connect 9 0 10 0;
#X connect 9 1 11 0;
#X connect 9 2 12 0;
#X connect 10 0 38 0;
#X connect 11 0 37 0;
#X connect 12 0 39 0;
#X connect 13 0 22 0;
#X connect 14 0 15 0;
#X connect 15 0 24 0;
#X connect 16 0 17 0;
#X connect 17 0 41 0;
#X connect 18 0 1 0;
#X connect 19 0 2 0;
#X connect 20 0 21 0;
#X connect 21 0 40 0;
#X connect 22 0 23 0;
#X connect 24 0 25 0;
#X connect 25 0 26 0;
#X connect 37 0 18 0;
#X connect 38 0 18 0;
#X connect 39 0 18 0;
#X connect 40 0 19 0;
#X connect 41 0 35 0;
#X restore 155 163 pd BOLD;
#N canvas -8 -8 1920 997 TIMID 0;
#X obj 432 139 inlet;
#X obj 29 561 outlet;
#X obj 103 561 outlet;
#X obj 29 154 r closeness;
#X obj 29 180 tgl 15 0 empty empty empty 17 7 0 10 -262144 -1 -1 0
1;
#X obj 29 227 bng 15 250 50 0 empty empty empty 17 7 0 10 -262144 -1
-1;
#X obj 29 248 random 3;
#X obj 56 225 loadbang;
#X obj 29 272 sel 0 1 2;
#X obj 29 303 bng 15 250 50 0 empty empty empty 17 7 0 10 -262144 -1
-1;
#X obj 49 303 bng 15 250 50 0 empty empty empty 17 7 0 10 -262144 -1
-1;
#X obj 69 303 bng 15 250 50 0 empty empty empty 17 7 0 10 -262144 -1
-1;
#X obj 432 165 bng 15 250 50 0 empty empty empty 17 7 0 10 -262144
-1 -1;
#X obj 567 139 inlet;
#X obj 567 165 bng 15 250 50 0 empty empty empty 17 7 0 10 -262144
-1 -1;
#X obj 652 139 inlet;
#X obj 652 165 bng 15 250 50 0 empty empty empty 17 7 0 10 -262144
-1 -1;
#X obj 29 528 line;
#X obj 103 528 line;
#X obj 103 456 r singing;
#X obj 103 480 bng 15 250 50 0 empty empty empty 17 7 0 10 -262144
-1 -1;
#X obj 567 185 random 5;
#X obj 567 233 s shyness;
#X text 432 120 call;
#X text 568 120 shyness;
#X text 652 120 laught;
#X text 30 105 envelope;
#X text 30 131 valores de capacitância > 700;
#X text 130 204 tempo de metro gerado pela personalidade;
#X text 132 271 escolhe random de 3 envolventes possiveis por personalidade
;
#X text 103 437 melody envelope;
#X text 30 58 TIMID;
#X obj 29 200 metro 10000;
#X obj 432 233 s TIMID_call_freq;
#X obj 567 209 + 10;
#X msg 432 185 256 32;
#X obj 652 233 s laugh_env;
#X msg 29 329 0 2 0.857 1000 0.285 3000 0 5000;
#X msg 652 185 0.285 50 0.857 200 0.857 230 0.285 250 0.857 260 0.857
280 0 300;
#X msg 49 353 0 2 0.857 3000 0.714 3500 0.428 4000 0 5000;
#X msg 69 379 0 2 0.571 1000 0.714 2000 0.857 3000 0 6000;
#X msg 103 501 0.785 1000 0 10000;
#X connect 0 0 12 0;
#X connect 3 0 4 0;
#X connect 4 0 32 0;
#X connect 5 0 6 0;
#X connect 6 0 8 0;
#X connect 7 0 5 0;
#X connect 8 0 9 0;
#X connect 8 1 10 0;
#X connect 8 2 11 0;
#X connect 9 0 37 0;
#X connect 10 0 39 0;
#X connect 11 0 40 0;
#X connect 12 0 35 0;
#X connect 13 0 14 0;
#X connect 14 0 21 0;
#X connect 15 0 16 0;
#X connect 16 0 38 0;
#X connect 17 0 1 0;
#X connect 18 0 2 0;
#X connect 19 0 20 0;
#X connect 20 0 41 0;
#X connect 21 0 34 0;
#X connect 32 0 5 0;
#X connect 34 0 22 0;
#X connect 35 0 33 0;
#X connect 37 0 17 0;
#X connect 38 0 36 0;
#X connect 39 0 17 0;
#X connect 40 0 17 0;
#X connect 41 0 18 0;
#X restore 221 163 pd TIMID;
#N canvas -8 -8 1920 997 IMPISH 0;
#X obj 640 139 inlet;
#X obj 29 561 outlet;
#X obj 103 561 outlet;
#X obj 29 154 r closeness;
#X obj 29 180 tgl 15 0 empty empty empty 17 7 0 10 -262144 -1 -1 0
1;
#X obj 29 200 metro 5000;
#X obj 29 227 bng 15 250 50 0 empty empty empty 17 7 0 10 -262144 -1
-1;
#X obj 29 248 random 3;
#X obj 56 225 loadbang;
#X obj 29 272 sel 0 1 2;
#X obj 29 303 bng 15 250 50 0 empty empty empty 17 7 0 10 -262144 -1
-1;
#X obj 49 303 bng 15 250 50 0 empty empty empty 17 7 0 10 -262144 -1
-1;
#X obj 69 303 bng 15 250 50 0 empty empty empty 17 7 0 10 -262144 -1
-1;
#X obj 640 165 bng 15 250 50 0 empty empty empty 17 7 0 10 -262144
-1 -1;
#X obj 775 139 inlet;
#X obj 775 165 bng 15 250 50 0 empty empty empty 17 7 0 10 -262144
-1 -1;
#X obj 860 139 inlet;
#X obj 860 165 bng 15 250 50 0 empty empty empty 17 7 0 10 -262144
-1 -1;
#X obj 29 528 line;
#X obj 103 528 line;
#X obj 103 456 r singing;
#X obj 103 480 bng 15 250 50 0 empty empty empty 17 7 0 10 -262144
-1 -1;
#X obj 775 233 s shyness;
#X text 640 120 call;
#X text 776 120 shyness;
#X text 860 120 laught;
#X text 30 105 envelope;
#X text 30 131 valores de capacitância > 700;
#X text 305 159 tempo de metro gerado pela personalidade;
#X text 132 271 escolhe random de 3 envolventes possiveis por personalidade
;
#X text 103 437 melody envelope;
#X text 30 58 IMPISH;
#X obj 640 233 s IMPISH_call_freq;
#X obj 775 185 random 15;
#X msg 640 185 128 64;
#X obj 860 233 s laugh_env;
#X obj 255 114 bng 15 250 50 0 empty empty empty 17 7 0 10 -262144
-1 -1;
#X obj 255 134 random 10000;
#X obj 255 158 + 2000;
#X floatatom 96 177 5 0 0 0 - - -;
#X text 353 132 random metro sempre que triggered;
#X obj 1133 660 hsl 128 15 -1 1 0 0 empty empty empty -2 -8 0 10 -228856
-1 -1 0 1;
#X obj 1130 746 nbx 5 14 -1e+37 1e+37 0 0 empty empty empty 0 -8 0
10 -228856 -1 -1 0 256;
#X obj 1130 687 nbx 5 14 -1e+37 1e+37 0 0 empty empty empty 0 -8 0
10 -228856 -1 -1 0 256;
#X text 1190 687 <= input;
#X text 1192 747 <= scaled value;
#X obj 1130 718 cyclone/scale -70 0 0 100;
#X floatatom 1078 837 6 0 0 0 - - -;
#X obj 1102 801 * 0.01;
#X msg 29 328 0 2 1 50 0.571 100 1 150 0.428 200 1 250 0 300;
#X msg 49 353 0 2 1 100 0.571 200 0 250 0.428 300 1 350 0 400;
#X msg 70 387 0 2 1 300 0.571 450 1 1000 0.428 1500 1 1800 0 2000;
#X msg 103 502 0.785 500 0.7142 2000 0.285 4000 0.7142 4500 0 10000
;
#X msg 860 185 0.285 100 0.871 120 0.285 140 0.871 200 0.285 220 0.871
310 0.871 370 0 550;
#X connect 0 0 13 0;
#X connect 3 0 4 0;
#X connect 4 0 5 0;
#X connect 5 0 6 0;
#X connect 6 0 7 0;
#X connect 7 0 9 0;
#X connect 8 0 6 0;
#X connect 9 0 10 0;
#X connect 9 1 11 0;
#X connect 9 2 12 0;
#X connect 10 0 49 0;
#X connect 11 0 50 0;
#X connect 12 0 51 0;
#X connect 13 0 34 0;
#X connect 14 0 15 0;
#X connect 15 0 33 0;
#X connect 16 0 17 0;
#X connect 17 0 53 0;
#X connect 18 0 1 0;
#X connect 19 0 2 0;
#X connect 20 0 21 0;
#X connect 21 0 52 0;
#X connect 33 0 22 0;
#X connect 34 0 32 0;
#X connect 36 0 37 0;
#X connect 37 0 38 0;
#X connect 38 0 39 0;
#X connect 39 0 5 1;
#X connect 41 0 43 0;
#X connect 42 0 48 0;
#X connect 43 0 46 0;
#X connect 46 0 42 0;
#X connect 48 0 47 0;
#X connect 49 0 18 0;
#X connect 50 0 18 0;
#X connect 51 0 18 0;
#X connect 52 0 19 0;
#X connect 53 0 35 0;
#X restore 288 163 pd IMPISH;
#X text 99 64 PERSONALITY;
#X text 99 280 water_env.;
#X text 259 281 idle_env.;
#X obj 155 121 sel 0 1 2, f 29;
#X obj 99 235 cyclone/switch 3;
#X obj 260 235 cyclone/switch 3;
#X connect 0 0 9 0;
#X connect 0 0 10 0;
#X connect 0 0 11 0;
#X connect 3 0 10 1;
#X connect 3 1 11 1;
#X connect 4 0 10 2;
#X connect 4 1 11 2;
#X connect 5 0 10 3;
#X connect 5 1 11 3;
#X connect 9 0 3 0;
#X connect 9 0 3 1;
#X connect 9 0 3 2;
#X connect 9 1 4 0;
#X connect 9 1 4 1;
#X connect 9 1 4 2;
#X connect 9 2 5 0;
#X connect 9 2 5 1;
#X connect 9 2 5 2;
#X connect 10 0 1 0;
#X connect 11 0 2 0;
