#N canvas 0 25 1280 747 12;
#X obj 43 246 r dia;
#X obj 26 91 r moisture_reward;
#X obj 167 91 r sunlight_reward;
#X obj 26 194 expr 1+$f1+$f2;
#X obj 167 116 f;
#X obj 26 118 f;
#X obj 167 141 t b f;
#X floatatom 26 222 5 0 0 0 - - -;
#X obj 26 340 f;
#X obj 26 413 s rewards;
#X obj 26 387 spigot;
#X obj 65 364 tgl 15 0 empty empty empty 17 7 0 10 -262144 -1 -1 0
1;
#X msg 65 336 1;
#X obj 43 302 t b b;
#X obj 103 314 pipe 50;
#X msg 103 336 0;
#X obj 43 278 bng 15 250 50 0 empty empty empty 17 7 0 10 -262144 -1
-1;
#X obj 405 86 r serial_cap;
#X floatatom 405 195 5 0 0 0 - - -;
#X obj 344 86 r dia;
#X msg 344 125 clear;
#X obj 405 356 moses 300;
#X obj 405 220 f;
#X floatatom 405 383 5 0 0 0 - - -;
#X obj 405 438 s moisture_reward;
#X obj 551 312 > 200;
#X obj 556 411 spigot;
#X obj 594 312 < 900;
#X obj 594 368 &&;
#X obj 594 341 t b f;
#X obj 595 392 tgl 15 0 empty empty empty 17 7 0 10 -262144 -1 -1 0
1;
#X obj 556 439 s drought;
#X text 343 52 MOISTURE REWARDS & DROUGHT;
#X text 24 50 REWARDS;
#X obj 863 105 r serial_val;
#X obj 1066 315 spigot;
#X obj 1105 293 tgl 15 0 empty empty empty 17 7 0 10 -262144 -1 -1
0 1;
#X obj 1105 267 < 254;
#X floatatom 1066 339 5 0 0 0 - - -;
#X obj 1066 366 s sunlight;
#X obj 775 136 r dia;
#X msg 775 178 clear;
#X floatatom 797 288 5 0 0 0 - - -;
#X obj 797 311 f;
#X obj 797 338 > 253;
#X floatatom 797 363 5 0 0 0 - - -;
#X obj 797 388 s sunlight_reward;
#X text 753 54 SUNLIGHT_REWARDS & SUNLIGHT;
#X obj 797 262 cyclone/mean;
#X obj 405 160 cyclone/mean 0;
#X connect 0 0 16 0;
#X connect 1 0 5 0;
#X connect 2 0 4 0;
#X connect 3 0 7 0;
#X connect 4 0 6 0;
#X connect 5 0 3 0;
#X connect 6 0 3 0;
#X connect 6 1 3 1;
#X connect 7 0 8 0;
#X connect 8 0 10 0;
#X connect 10 0 9 0;
#X connect 11 0 10 1;
#X connect 12 0 11 0;
#X connect 13 0 8 0;
#X connect 13 1 12 0;
#X connect 13 1 14 0;
#X connect 14 0 15 0;
#X connect 15 0 11 0;
#X connect 16 0 13 0;
#X connect 17 0 49 0;
#X connect 18 0 22 0;
#X connect 19 0 20 0;
#X connect 20 0 49 0;
#X connect 21 0 23 0;
#X connect 22 0 21 0;
#X connect 22 0 26 0;
#X connect 22 0 25 0;
#X connect 22 0 27 0;
#X connect 23 0 24 0;
#X connect 25 0 28 0;
#X connect 26 0 31 0;
#X connect 27 0 29 0;
#X connect 28 0 30 0;
#X connect 29 0 28 0;
#X connect 29 1 28 1;
#X connect 30 0 26 1;
#X connect 34 0 35 0;
#X connect 34 0 37 0;
#X connect 34 0 48 0;
#X connect 35 0 38 0;
#X connect 36 0 35 1;
#X connect 37 0 36 0;
#X connect 38 0 39 0;
#X connect 40 0 41 0;
#X connect 41 0 48 0;
#X connect 42 0 43 0;
#X connect 43 0 44 0;
#X connect 44 0 45 0;
#X connect 45 0 46 0;
#X connect 48 0 42 0;
#X connect 49 0 18 0;
