#N canvas 705 93 547 499 10;
#N canvas 564 88 708 418 shyness 0;
#X obj 26 19 r kiss;
#X obj 135 19 r shyness;
#X obj 26 49 bng 15 250 50 0 empty empty empty 17 7 0 10 -262144 -1
-1;
#X obj 26 69 random 10;
#X floatatom 135 39 5 0 0 0 - - -;
#X obj 26 89 sel 0;
#X obj 26 109 outlet;
#X text 232 22 SHYNESS - CHANCE DE REAGIR AO TOQUE 1) a shyness é
randomizada on reset com base na personalidade: a) if poked (simulated)
or kissed (serial data) has x% chance to react;
#X connect 0 0 2 0;
#X connect 1 0 4 0;
#X connect 2 0 3 0;
#X connect 3 0 5 0;
#X connect 4 0 3 1;
#X connect 5 0 6 0;
#X restore 32 26 pd shyness;
#N canvas 645 25 635 747 heart 0;
#X obj 33 31 r dia;
#X obj 70 49 pipe 50;
#X msg 70 69 1;
#X msg 33 51 0;
#X obj 70 97 tgl 15 0 empty empty empty 17 7 0 10 -262144 -1 -1 0 1
;
#X obj 70 150 metro 150000;
#X obj 70 195 random 10;
#X obj 70 215 sel 0;
#X obj 70 235 outlet;
#X text 304 26 HEART - VONTADE DE CANTAR 1) heart: quantidade de vezes
que a planta tem vontade de cantar: 1.1) actualiza todos os dias (dia)
consoante o tratamento (rewards) \; 2) shyness: é randomizada quando
reset com base na personalidade e representa a probabilidade de cantar
quando tem vontade. 3) kiss: quando tocada levemente a planta pode
cantar.;
#X obj 152 27 r rewards;
#X obj 152 47 sel 1 2 3;
#X msg 152 80 480000;
#X msg 204 80 300000;
#X msg 254 79 120000;
#X floatatom 152 118 5 0 0 0 - - -;
#X text 114 81 8 min;
#X text 205 106 5 min;
#X text 254 106 2 min;
#X obj 134 176 r shyness;
#X connect 0 0 3 0;
#X connect 0 0 1 0;
#X connect 1 0 2 0;
#X connect 2 0 4 0;
#X connect 3 0 4 0;
#X connect 4 0 5 0;
#X connect 5 0 6 0;
#X connect 6 0 7 0;
#X connect 7 0 8 0;
#X connect 10 0 11 0;
#X connect 11 0 12 0;
#X connect 11 1 13 0;
#X connect 11 2 14 0;
#X connect 11 3 12 0;
#X connect 12 0 15 0;
#X connect 13 0 15 0;
#X connect 14 0 15 0;
#X connect 15 0 5 1;
#X connect 19 0 6 1;
#X restore 107 26 pd heart;
#N canvas 720 165 450 300 growth 0;
#X obj 7 12 r dia;
#X obj 73 13 r reset_freq_seed;
#X obj 105 79 r rewards;
#X obj 105 105 + 1;
#X floatatom 105 129 5 0 0 0 - - -;
#X obj 73 185 random 2000;
#X floatatom 73 211 5 0 0 0 - - -;
#X obj 211 13 r growth_chance;
#X floatatom 211 41 5 0 0 0 - - -;
#X text 266 63 reset;
#X text 351 9 GROWTH - EVOLUÇÃO DAS OITAVAS 1) valor inicial é random
(reset) \; 2) diariamente compara resultado aleatório com anterior
\, assume o mínimo, f 35;
#X msg 211 66 \$1;
#X floatatom 183 154 5 0 0 0 - - -;
#X obj 73 308 s growth;
#X obj 73 154 cyclone/uzi 1;
#X msg 15 138 10000;
#X obj 238 199 cyclone/loadmess 1000;
#X obj 73 230 expr if($f1 < $f2 \, $f1 \, $f2);
#X obj 73 250 t f f;
#X obj 73 270 * 0.01;
#X floatatom 73 290 5 0 0 0 - - -;
#X connect 0 0 14 0;
#X connect 1 0 11 0;
#X connect 1 0 14 0;
#X connect 2 0 3 0;
#X connect 3 0 4 0;
#X connect 4 0 14 1;
#X connect 5 0 6 0;
#X connect 6 0 17 0;
#X connect 7 0 8 0;
#X connect 8 0 11 0;
#X connect 11 0 12 0;
#X connect 12 0 5 1;
#X connect 14 0 5 0;
#X connect 15 0 14 0;
#X connect 16 0 17 1;
#X connect 17 0 18 0;
#X connect 18 0 19 0;
#X connect 18 1 17 1;
#X connect 19 0 20 0;
#X connect 20 0 13 0;
#X restore 178 26 pd growth;
#X obj 32 70 bng 50 250 50 0 empty empty empty 17 7 0 10 -261234 -262130
-262130;
#N canvas 728 258 450 300 phenotype 0;
#X obj 16 15 r reset_freq_seed;
#X obj 16 35 bng 15 250 50 0 empty empty empty 17 7 0 10 -262144 -1
-1;
#X obj 16 55 random 12;
#X obj 16 75 + 117;
#X floatatom 16 95 5 0 0 0 - - -;
#X obj 16 114 mtof;
#X obj 16 134 pipe 5;
#X msg 64 149 set \$1;
#X obj 129 15 inlet;
#X obj 16 154 bng 15 250 50 0 empty empty empty 17 7 0 10 -262144 -1
-1;
#X obj 213 45 loadbang;
#X obj 213 65 pipe 30;
#X msg 16 174 9956.06;
#X obj 16 194 outlet;
#X obj 66 215 s fundamental;
#X connect 0 0 1 0;
#X connect 1 0 2 0;
#X connect 2 0 3 0;
#X connect 3 0 4 0;
#X connect 4 0 5 0;
#X connect 5 0 6 0;
#X connect 5 0 7 0;
#X connect 6 0 9 0;
#X connect 7 0 12 0;
#X connect 8 0 9 0;
#X connect 9 0 12 0;
#X connect 10 0 11 0;
#X connect 11 0 9 0;
#X connect 12 0 13 0;
#X connect 12 0 14 0;
#X restore 32 145 pd phenotype;
#X floatatom 32 165 5 0 0 0 - - -;
#X text 17 337 FLOWER 1) Phenotype (fundamental) é determinado no
início (reset) \; 2) A canção deverá ser f (fundamental) + 2*f
+ f/8 + 3*f + f/6 + 4*f + f/5 + 5*f + f/4 + 6*f + f/3 + 8*f + f/2:
2.1) as oitavas (2*f \, 4*f \, 8*f \, f/2 \, f/4 \, f/8) estão desafinadas
on reset (random) e evoluem todos os dias para um valor mais afinado
ou não mudam \; 2.2) os overtones (x*f) são harmonizados pelo exposição
solar \; 2.3) os undertones (f/x) são harmonizados pela rega \;,
f 156;
#X obj 119 145 s singing;
#N canvas 188 128 450 296 ritmo 0;
#X obj 16 12 inlet;
#X obj 16 47 bng 15 250 50 0 empty empty empty 17 7 0 10 -262144 -1
-1;
#X obj 62 12 r reset_freq_seed;
#X obj 16 68 random 500;
#X obj 16 92 + 300;
#X obj 16 117 outlet;
#X connect 0 0 1 0;
#X connect 1 0 3 0;
#X connect 2 0 1 0;
#X connect 3 0 4 0;
#X connect 4 0 5 0;
#X restore 193 145 pd ritmo;
#N canvas 758 236 450 296 fundamental 0;
#X obj 9 5 inlet;
#X floatatom 9 30 5 0 0 0 - - -;
#N canvas 1229 264 450 683 tri 0;
#X floatatom 26 38 5 0 0 0 - - -;
#X obj 26 117 phasor~;
#X obj 105 66 * -1;
#X obj 105 116 phasor~;
#X msg 151 65 0;
#X obj 26 144 *~ 2;
#X obj 106 143 *~ 2;
#X obj 25 176 -~ 1;
#X obj 105 175 -~ 1;
#X obj 25 266 +~;
#X obj 24 357 outlet~;
#X obj 27 10 inlet;
#X obj 25 202 clip~ 0 1;
#X obj 105 201 clip~ 0 1;
#X connect 0 0 1 0;
#X connect 0 0 2 0;
#X connect 1 0 5 0;
#X connect 2 0 3 0;
#X connect 3 0 6 0;
#X connect 4 0 3 1;
#X connect 4 0 1 1;
#X connect 5 0 7 0;
#X connect 6 0 8 0;
#X connect 7 0 12 0;
#X connect 8 0 13 0;
#X connect 9 0 10 0;
#X connect 11 0 0 0;
#X connect 12 0 9 0;
#X connect 13 0 9 1;
#X restore 9 110 pd tri;
#X obj 9 83 line;
#X msg 9 55 \$1 100;
#X obj 9 138 *~ 0.8;
#X obj 9 164 outlet~;
#X connect 0 0 1 0;
#X connect 1 0 4 0;
#X connect 2 0 5 0;
#X connect 3 0 2 0;
#X connect 4 0 3 0;
#X connect 5 0 6 0;
#X restore 32 212 pd fundamental;
#N canvas 795 292 450 300 octaves 0;
#X obj 18 11 inlet;
#X obj 71 11 inlet;
#X obj 18 147 pipe 100;
#X obj 71 121 * 12;
#X obj 18 177 * 2;
#X obj 114 148 pipe 100;
#X obj 167 122 * 11;
#X obj 114 177 expr (($f1/8)*2);
#X obj 247 147 pipe 100;
#X obj 300 121 * 8;
#X obj 247 177 * 4;
#X obj 347 148 pipe 100;
#X obj 400 122 * 5;
#X obj 347 177 expr (($f1/4)*2);
#X obj 478 146 pipe 100;
#X obj 531 120 * 2;
#X obj 478 176 * 8;
#X obj 574 148 pipe 100;
#X obj 627 122 * 1;
#X obj 574 177 expr (($f1/2)*2);
#X floatatom 18 281 10 0 0 0 - - -;
#X obj 18 338 line;
#X msg 18 308 \$1 100;
#N canvas 1229 264 450 683 tri_2 0;
#X floatatom 26 38 5 0 0 0 - - -;
#X obj 26 117 phasor~;
#X obj 105 66 * -1;
#X obj 105 116 phasor~;
#X msg 151 65 0;
#X obj 26 144 *~ 2;
#X obj 106 143 *~ 2;
#X obj 25 176 -~ 1;
#X obj 105 175 -~ 1;
#X obj 25 266 +~;
#X obj 24 357 outlet~;
#X obj 27 10 inlet;
#X obj 25 202 clip~ 0 1;
#X obj 105 201 clip~ 0 1;
#X connect 0 0 1 0;
#X connect 0 0 2 0;
#X connect 1 0 5 0;
#X connect 2 0 3 0;
#X connect 3 0 6 0;
#X connect 4 0 3 1;
#X connect 4 0 1 1;
#X connect 5 0 7 0;
#X connect 6 0 8 0;
#X connect 7 0 12 0;
#X connect 8 0 13 0;
#X connect 9 0 10 0;
#X connect 11 0 0 0;
#X connect 12 0 9 0;
#X connect 13 0 9 1;
#X restore 18 365 pd tri_2;
#X obj 114 282 r growth;
#X obj 114 308 * 0.1;
#X obj 114 399 *~, f 5;
#X floatatom 146 342 5 0 0 0 - - -;
#X obj 146 365 cycle~;
#X obj 115 431 +~, f 7;
#X obj 213 364 loadmess 1;
#X floatatom 213 399 5 0 0 0 - - -;
#X obj 20 495 *~ 0.5;
#X obj 20 526 outlet~;
#X obj 19 466 cyclone/teeth~ 0 1 1 1 0, f 70;
#X connect 0 0 2 0;
#X connect 1 0 3 0;
#X connect 1 0 6 0;
#X connect 1 0 9 0;
#X connect 1 0 12 0;
#X connect 1 0 15 0;
#X connect 1 0 18 0;
#X connect 2 0 4 0;
#X connect 3 0 2 1;
#X connect 4 0 20 0;
#X connect 5 0 7 0;
#X connect 6 0 5 1;
#X connect 7 0 20 0;
#X connect 8 0 10 0;
#X connect 9 0 8 1;
#X connect 10 0 20 0;
#X connect 11 0 13 0;
#X connect 12 0 11 1;
#X connect 13 0 20 0;
#X connect 14 0 16 0;
#X connect 15 0 14 1;
#X connect 16 0 20 0;
#X connect 17 0 19 0;
#X connect 18 0 17 1;
#X connect 19 0 20 0;
#X connect 20 0 22 0;
#X connect 21 0 23 0;
#X connect 22 0 21 0;
#X connect 23 0 34 0;
#X connect 24 0 25 0;
#X connect 25 0 27 0;
#X connect 25 0 26 0;
#X connect 26 0 29 0;
#X connect 27 0 28 0;
#X connect 28 0 26 1;
#X connect 29 0 34 1;
#X connect 30 0 31 0;
#X connect 31 0 29 1;
#X connect 31 0 34 2;
#X connect 32 0 33 0;
#X connect 34 0 32 0;
#X restore 134 212 pd octaves;
#N canvas 0 25 1280 747 overtones 0;
#X obj 9 7 inlet;
#X obj 242 6 inlet;
#X obj 9 98 pipe 100;
#X obj 62 74 * 3;
#X obj 9 126 * 3;
#X obj 96 98 pipe 100;
#X obj 149 74 * 7;
#X obj 96 126 * 5;
#X obj 189 98 pipe 100;
#X obj 242 74 * 9;
#X obj 189 126 * 6;
#X floatatom 9 184 10 0 0 0 - - -;
#X obj 9 279 line;
#X msg 9 249 \$1 100;
#X obj 105 340 *~, f 5;
#X floatatom 137 283 5 0 0 0 - - -;
#X obj 137 306 cycle~;
#X obj 106 372 +~, f 7;
#X obj 204 305 loadmess 1;
#X floatatom 204 340 5 0 0 0 - - -;
#X obj 11 436 *~ 0.5;
#X obj 11 467 outlet~;
#X obj 105 249 * 0.01;
#X obj 105 220 r sunlight;
#N canvas 1229 264 450 683 tri_3 0;
#X floatatom 26 38 5 0 0 0 - - -;
#X obj 26 117 phasor~;
#X obj 105 66 * -1;
#X obj 105 116 phasor~;
#X msg 151 65 0;
#X obj 26 144 *~ 2;
#X obj 106 143 *~ 2;
#X obj 25 176 -~ 1;
#X obj 105 175 -~ 1;
#X obj 25 266 +~;
#X obj 24 357 outlet~;
#X obj 27 10 inlet;
#X obj 25 202 clip~ 0 1;
#X obj 105 201 clip~ 0 1;
#X connect 0 0 1 0;
#X connect 0 0 2 0;
#X connect 1 0 5 0;
#X connect 2 0 3 0;
#X connect 3 0 6 0;
#X connect 4 0 3 1;
#X connect 4 0 1 1;
#X connect 5 0 7 0;
#X connect 6 0 8 0;
#X connect 7 0 12 0;
#X connect 8 0 13 0;
#X connect 9 0 10 0;
#X connect 11 0 0 0;
#X connect 12 0 9 0;
#X connect 13 0 9 1;
#X restore 9 305 pd tri_3;
#X obj 10 407 cyclone/teeth~ 0 1 1 1 0, f 70;
#X connect 0 0 2 0;
#X connect 0 0 5 0;
#X connect 0 0 8 0;
#X connect 1 0 3 0;
#X connect 1 0 6 0;
#X connect 1 0 9 0;
#X connect 2 0 4 0;
#X connect 3 0 2 1;
#X connect 4 0 11 0;
#X connect 5 0 7 0;
#X connect 6 0 5 1;
#X connect 7 0 11 0;
#X connect 8 0 10 0;
#X connect 9 0 8 1;
#X connect 10 0 11 0;
#X connect 11 0 13 0;
#X connect 12 0 24 0;
#X connect 13 0 12 0;
#X connect 14 0 17 0;
#X connect 15 0 16 0;
#X connect 16 0 14 1;
#X connect 17 0 25 1;
#X connect 18 0 19 0;
#X connect 19 0 17 1;
#X connect 19 0 25 2;
#X connect 20 0 21 0;
#X connect 22 0 15 0;
#X connect 22 0 14 0;
#X connect 23 0 22 0;
#X connect 24 0 25 0;
#X connect 25 0 20 0;
#X restore 209 212 pd overtones;
#N canvas 0 25 1280 747 undertones 0;
#X obj 9 7 inlet;
#X obj 242 6 inlet;
#X obj 9 98 pipe 100;
#X obj 146 104 pipe 100;
#X obj 293 100 pipe 100;
#X floatatom 9 184 10 0 0 0 - - -;
#X obj 9 279 line;
#X msg 9 249 \$1 100;
#X obj 105 340 *~, f 5;
#X floatatom 135 292 5 0 0 0 - - -;
#X obj 135 315 cycle~;
#X obj 106 372 +~, f 7;
#X obj 204 305 loadmess 1;
#X floatatom 204 340 5 0 0 0 - - -;
#X obj 11 436 *~ 0.5;
#X obj 11 467 outlet~;
#X obj 105 249 * 0.01;
#X obj 62 74 * 4;
#X obj 199 77 * 6;
#X obj 346 77 * 10;
#X obj 9 128 expr (($f1/6)*2);
#X obj 146 129 expr (($f1/5)*2);
#X obj 293 128 expr (($f1/3)*2);
#X obj 105 220 r drought;
#X obj 135 271 abs;
#N canvas 1229 264 450 683 tri_4 0;
#X floatatom 26 38 5 0 0 0 - - -;
#X obj 26 117 phasor~;
#X obj 105 66 * -1;
#X obj 105 116 phasor~;
#X msg 151 65 0;
#X obj 26 144 *~ 2;
#X obj 106 143 *~ 2;
#X obj 25 176 -~ 1;
#X obj 105 175 -~ 1;
#X obj 25 266 +~;
#X obj 24 357 outlet~;
#X obj 27 10 inlet;
#X obj 25 202 clip~ 0 1;
#X obj 105 201 clip~ 0 1;
#X connect 0 0 1 0;
#X connect 0 0 2 0;
#X connect 1 0 5 0;
#X connect 2 0 3 0;
#X connect 3 0 6 0;
#X connect 4 0 3 1;
#X connect 4 0 1 1;
#X connect 5 0 7 0;
#X connect 6 0 8 0;
#X connect 7 0 12 0;
#X connect 8 0 13 0;
#X connect 9 0 10 0;
#X connect 11 0 0 0;
#X connect 12 0 9 0;
#X connect 13 0 9 1;
#X restore 9 305 pd tri_4;
#X obj 10 407 cyclone/teeth~ 0 0.5 1 1 0, f 70;
#X connect 0 0 2 0;
#X connect 0 0 3 0;
#X connect 0 0 4 0;
#X connect 1 0 17 0;
#X connect 1 0 18 0;
#X connect 1 0 19 0;
#X connect 2 0 20 0;
#X connect 3 0 21 0;
#X connect 4 0 22 0;
#X connect 5 0 7 0;
#X connect 6 0 25 0;
#X connect 7 0 6 0;
#X connect 8 0 11 0;
#X connect 9 0 10 0;
#X connect 10 0 8 1;
#X connect 11 0 26 1;
#X connect 12 0 13 0;
#X connect 13 0 11 1;
#X connect 13 0 26 2;
#X connect 14 0 15 0;
#X connect 16 0 8 0;
#X connect 16 0 24 0;
#X connect 17 0 2 1;
#X connect 18 0 3 1;
#X connect 19 0 4 1;
#X connect 20 0 5 0;
#X connect 21 0 5 0;
#X connect 22 0 5 0;
#X connect 23 0 16 0;
#X connect 24 0 9 0;
#X connect 25 0 26 0;
#X connect 26 0 14 0;
#X restore 296 212 pd undertones;
#X obj 32 264 outlet~;
#X connect 0 0 3 0;
#X connect 1 0 3 0;
#X connect 3 0 4 0;
#X connect 3 0 7 0;
#X connect 3 0 8 0;
#X connect 4 0 5 0;
#X connect 5 0 9 0;
#X connect 5 0 10 0;
#X connect 5 0 11 0;
#X connect 5 0 12 0;
#X connect 8 0 10 1;
#X connect 8 0 11 1;
#X connect 8 0 12 1;
#X connect 9 0 13 0;
#X connect 10 0 13 0;
#X connect 11 0 13 0;
#X connect 12 0 13 0;
