#N canvas 128 25 975 747 12;
#X obj 137 55 r temp_val;
#X obj 300 53 r BOLD_call_freq;
#X obj 435 52 r TIMID_call_freq;
#X obj 568 50 r IMPISH_call_freq;
#X obj 300 77 unpack;
#X obj 435 76 unpack;
#X obj 568 74 unpack;
#X obj 137 305 * 10;
#X floatatom 137 329 5 0 0 0 - - -;
#X floatatom 162 275 5 0 0 0 - - -;
#X obj 298 165 r temp_TR;
#X obj 449 165 r whistle;
#X obj 595 165 r temp_TD;
#X obj 298 208 bng 15 250 50 0 empty empty empty 17 7 0 10 -262144
-1 -1;
#X obj 298 562 outlet;
#N canvas 830 98 450 300 syrinx 1;
#X obj 93 46 inlet;
#X floatatom 93 70 5 0 0 0 - - -;
#X msg 93 93 \$1 600;
#X obj 93 117 line~ 0;
#X obj 94 177 outlet~;
#X obj 161 117 cyclone/cycle~ 5;
#X obj 93 153 cyclone/cycle~ 0;
#X connect 0 0 1 0;
#X connect 1 0 2 0;
#X connect 2 0 3 0;
#X connect 3 0 6 0;
#X connect 5 0 6 1;
#X connect 6 0 4 0;
#X restore 136 503 pd syrinx;
#X obj 136 562 outlet~;
#X obj 136 398 list prepend;
#X obj 321 206 list prepend;
#X obj 595 208 bng 15 250 50 0 empty empty empty 17 7 0 10 -262144
-1 -1;
#X obj 618 206 list prepend;
#X obj 298 487 line 0;
#X obj 317 286 loadbang;
#X text 11 306 escala os valores;
#X text 60 330 frequência;
#X text 318 321 temperatura sobe (env);
#X obj 844 202 r light beam;
#X obj 925 300 r laught_env;
#X obj 844 352 list prepend;
#X obj 844 226 t b;
#X text 606 406 temperatura desce (env);
#X msg 846 429 0.285 100 0.857 120 0.285 140 0.857 200 0.285 220 0.857
310 0.857 370 0 550;
#X msg 595 386 0.571 500 0.714 800 0 800;
#X msg 298 342 0.285 200 0.571 250 0.714 500 0.714 1000 0.571 500 0.285
3000 0 5000;
#X connect 0 0 7 0;
#X connect 1 0 4 0;
#X connect 2 0 5 0;
#X connect 3 0 6 0;
#X connect 4 0 18 1;
#X connect 4 1 20 1;
#X connect 5 0 18 1;
#X connect 5 1 20 1;
#X connect 6 0 18 1;
#X connect 6 1 20 1;
#X connect 7 0 8 0;
#X connect 8 0 17 1;
#X connect 9 0 7 1;
#X connect 10 0 13 0;
#X connect 11 0 33 0;
#X connect 11 0 32 0;
#X connect 12 0 19 0;
#X connect 13 0 18 0;
#X connect 13 0 17 0;
#X connect 13 0 33 0;
#X connect 15 0 16 0;
#X connect 17 0 15 0;
#X connect 18 0 9 0;
#X connect 19 0 20 0;
#X connect 19 0 32 0;
#X connect 19 0 17 0;
#X connect 20 0 9 0;
#X connect 21 0 14 0;
#X connect 22 0 33 0;
#X connect 26 0 29 0;
#X connect 27 0 28 1;
#X connect 28 0 31 0;
#X connect 29 0 28 0;
#X connect 31 0 21 0;
#X connect 32 0 21 0;
#X connect 33 0 21 0;
