#N canvas 39 53 685 561 10;
#X declare -path pd_int;
#X obj 10 44 oscparse;
#X obj 10 20 netreceive -u -b 3001;
#X obj 10 67 list trim;
#X floatatom 8 149 5 0 0 0 - - -;
#X floatatom 61 149 5 0 0 0 - - -;
#X floatatom 115 149 5 0 0 0 - - -;
#X floatatom 168 149 5 0 0 0 - - -;
#X floatatom 222 149 5 0 0 0 - - -;
#X floatatom 275 149 5 0 0 0 - - -;
#X obj 45 247 personality;
#X obj 107 320 leaves;
#X obj 188 321 flower;
#X obj 45 226 hradio 15 1 0 3 empty empty empty 0 -8 0 10 -261234 -1
-1 1;
#X obj 45 201 r reset_personality;
#X obj 27 383 *~;
#X obj 108 381 *~;
#X obj 189 380 *~;
#X floatatom 207 358 5 0 0 0 - - -;
#X floatatom 126 358 5 0 0 0 - - -;
#X floatatom 45 358 5 0 0 0 - - -;
#X obj 109 490 *~ 1;
#X obj 108 546 dac~ 1;
#X obj 25 321 roots;
#N canvas 200 315 450 300 reset 0;
#X obj 24 23 inlet;
#X obj 24 197 s reset_freq_seed;
#X obj 169 197 s reset_personality;
#X obj 169 83 bng 15 250 50 0 empty empty empty 17 7 0 10 -262144 -1
-1;
#X obj 169 138 random 3;
#X obj 73 79 s day_0;
#X obj 45 137 s reset;
#X connect 0 0 1 0;
#X connect 0 0 3 0;
#X connect 0 0 5 0;
#X connect 0 0 6 0;
#X connect 3 0 4 0;
#X connect 4 0 2 0;
#X restore 349 94 pd reset;
#X obj 349 47 bng 15 250 50 0 empty empty empty 17 7 0 10 -262144 -1
-1;
#X obj 349 70 pipe 10;
#N canvas 72 25 772 747 conta_dias 0;
#X obj 37 98 date, f 15;
#X floatatom 118 191 5 0 0 0 - - -;
#X obj 118 222 i;
#X obj 118 279 spigot;
#X obj 157 251 tgl 15 0 empty empty empty 17 7 0 10 -262144 -1 -1 0
1;
#X obj 158 84 r day_0;
#X msg 157 191 1;
#X msg 191 213 0;
#X obj 80 155 bng 15 250 50 0 empty empty empty 17 7 0 10 -262144 -1
-1;
#X obj 158 111 t b b;
#X floatatom 37 204 5 0 0 0 - - -;
#X msg 37 306 0 \$1;
#X msg 118 304 4 \$1;
#X obj 37 281 spigot;
#X obj 76 255 tgl 15 0 empty empty empty 17 7 0 10 -262144 -1 -1 1
1;
#X obj 194 189 pipe 20;
#X text 106 15 dia 0;
#X obj 719 333 date, f 13;
#X floatatom 719 366 5 0 0 0 - - -;
#X msg 814 408 0;
#X floatatom 814 471 5 0 0 0 - - -;
#X floatatom 719 535 5 0 0 0 - - -;
#X obj 689 222 bng 15 250 50 0 empty empty empty 17 7 0 10 -262144
-1 -1;
#X obj 719 501 expr $f1 - $f2;
#X msg 410 470 366;
#X obj 410 430 sel 2024 2028 2032 2036 2040 2044;
#X msg 638 471 365;
#X floatatom 638 539 5 0 0 0 - - -;
#X text 731 564 (dias no ano) * (ano actual - ano de início);
#X floatatom 638 631 5 0 0 0 - - -;
#X floatatom 638 799 5 0 0 0 - - -;
#X obj 689 83 r ligar;
#X obj 705 193 metro 3.6e+06;
#X obj 705 169 tgl 15 0 empty empty empty 17 7 0 10 -262144 -1 -1 1
1;
#X obj 704 115 loadbang;
#X msg 704 138 1;
#X msg 714 699 4;
#X text 643 19 dia da experiência;
#X obj 1323 116 inlet;
#X obj 1499 115 inlet;
#X obj 1558 115 inlet;
#X obj 1368 116 r reset_freq_seed;
#X msg 1499 224 0;
#X floatatom 1558 223 5 0 0 0 - - -;
#X obj 1605 221 > 31;
#X obj 1605 251 sel 1;
#X msg 1605 295 2000;
#X msg 1649 295 1000;
#X obj 1605 333 s growth_chance;
#X obj 1323 335 s dia;
#X obj 1586 150 bng 15 250 50 0 empty empty empty 17 7 0 10 -262144
-1 -1;
#X obj 638 825 s dia;
#X obj 38 37 r reset;
#X obj 118 330 cyclone/coll data;
#C restore;
#X obj 713 726 cyclone/coll data;
#C restore;
#X obj 814 437 cyclone/coll data;
#C restore;
#X obj 1323 251 cyclone/counter 31, f 34;
#X obj 1586 170 cyclone/loadmess 31;
#X obj 649 122 sel 1;
#X obj 38 61 sel 1;
#X obj 35 80 bng 15 250 50 0 empty empty empty 17 7 0 10 -262144 -1
-1;
#X obj 638 772 expr $f1 + $f2 - $f3;
#X obj 613 600 expr $f1*$f2;
#X obj 690 246 t b b b b;
#X obj 791 811 print dia;
#X connect 0 0 10 0;
#X connect 0 4 1 0;
#X connect 1 0 2 0;
#X connect 2 0 3 0;
#X connect 3 0 12 0;
#X connect 4 0 3 1;
#X connect 5 0 9 0;
#X connect 6 0 15 0;
#X connect 6 0 4 0;
#X connect 6 0 14 0;
#X connect 7 0 4 0;
#X connect 8 0 1 0;
#X connect 8 0 10 0;
#X connect 9 0 8 0;
#X connect 9 1 6 0;
#X connect 10 0 13 0;
#X connect 11 0 53 0;
#X connect 12 0 53 0;
#X connect 13 0 11 0;
#X connect 14 0 13 1;
#X connect 15 0 7 0;
#X connect 17 0 18 0;
#X connect 17 4 61 2;
#X connect 18 0 23 0;
#X connect 18 0 25 0;
#X connect 19 0 55 0;
#X connect 20 0 23 1;
#X connect 21 0 62 1;
#X connect 22 0 63 0;
#X connect 23 0 21 0;
#X connect 24 0 27 0;
#X connect 25 0 24 0;
#X connect 25 1 24 0;
#X connect 25 2 24 0;
#X connect 25 3 24 0;
#X connect 25 4 24 0;
#X connect 25 5 24 0;
#X connect 25 6 26 0;
#X connect 26 0 27 0;
#X connect 27 0 62 0;
#X connect 29 0 61 0;
#X connect 30 0 51 0;
#X connect 31 0 58 0;
#X connect 32 0 22 0;
#X connect 33 0 32 0;
#X connect 34 0 35 0;
#X connect 35 0 33 0;
#X connect 36 0 54 0;
#X connect 38 0 56 0;
#X connect 39 0 42 0;
#X connect 40 0 43 0;
#X connect 41 0 42 0;
#X connect 41 0 50 0;
#X connect 42 0 56 3;
#X connect 43 0 44 0;
#X connect 43 0 56 4;
#X connect 44 0 45 0;
#X connect 45 0 46 0;
#X connect 45 1 47 0;
#X connect 46 0 48 0;
#X connect 47 0 48 0;
#X connect 50 0 57 0;
#X connect 52 0 59 0;
#X connect 54 0 61 1;
#X connect 55 0 20 0;
#X connect 56 0 49 0;
#X connect 57 0 43 0;
#X connect 58 0 22 0;
#X connect 59 0 60 0;
#X connect 60 0 0 0;
#X connect 61 0 30 0;
#X connect 61 0 64 0;
#X connect 62 0 29 0;
#X connect 63 0 17 0;
#X connect 63 1 36 0;
#X connect 63 2 25 0;
#X connect 63 3 19 0;
#X restore 349 116 pd conta_dias;
#X text 401 16 BOTÃO DE RESET;
#X obj 440 115 rewards;
#N canvas 0 25 1280 747 duration 0;
#X obj 21 11 inlet;
#X floatatom 21 119 5 0 0 0 - - -;
#X obj 68 117 > 31;
#X obj 68 147 sel 1;
#X msg 68 191 2000;
#X msg 112 191 1000;
#X obj 68 229 s growth_chance;
#X obj 48 41 bng 15 250 50 0 empty empty empty 17 7 0 10 -262144 -1
-1;
#X obj 49 66 cyclone/loadmess 31;
#X connect 0 0 1 0;
#X connect 1 0 2 0;
#X connect 2 0 3 0;
#X connect 3 0 4 0;
#X connect 3 1 5 0;
#X connect 4 0 6 0;
#X connect 5 0 6 0;
#X connect 7 0 8 0;
#X connect 8 0 1 0;
#X restore 495 115 pd duration;
#X msg 495 43 30;
#X msg 506 66 60;
#X msg 531 41 90;
#X obj 578 74 loadbang;
#X msg 578 104 \; pd dsp 1 \;;
#X obj 654 65 bng 15 250 50 0 empty empty empty 17 7 0 10 -262144 -1
-1;
#X msg 654 94 \; pd-flormiga_main.pd menusave \; pd-flower.pd menusave
\;;
#X obj 8 99 route capacitance temperature brightness button switch
battery;
#X obj 387 314 declare -path pd_int;
#X obj 8 174 s serial_moist_value;
#X obj 136 174 s temp_val;
#X obj 202 173 s light_beam;
#X text 319 189 Brightness -> valores mais baixos = mais luz Button
-> reset;
#X obj 284 173 s reset;
#X obj 350 5 r reset;
#X obj 350 26 sel 1;
#X obj 336 172 s ligar;
#X obj 503 11 loadbang;
#X connect 0 0 2 0;
#X connect 1 0 0 0;
#X connect 2 0 37 0;
#X connect 3 0 39 0;
#X connect 4 0 40 0;
#X connect 5 0 41 0;
#X connect 7 0 43 0;
#X connect 8 0 46 0;
#X connect 9 0 19 0;
#X connect 9 1 17 0;
#X connect 10 0 15 0;
#X connect 10 1 18 0;
#X connect 11 0 16 0;
#X connect 12 0 9 0;
#X connect 13 0 12 0;
#X connect 14 0 20 0;
#X connect 15 0 20 0;
#X connect 16 0 20 0;
#X connect 17 0 16 1;
#X connect 18 0 15 1;
#X connect 19 0 14 1;
#X connect 20 0 21 0;
#X connect 22 0 14 0;
#X connect 24 0 25 0;
#X connect 25 0 23 0;
#X connect 30 0 29 0;
#X connect 31 0 29 0;
#X connect 32 0 29 0;
#X connect 33 0 34 0;
#X connect 35 0 36 0;
#X connect 37 0 3 0;
#X connect 37 1 4 0;
#X connect 37 2 5 0;
#X connect 37 3 6 0;
#X connect 37 4 7 0;
#X connect 37 5 8 0;
#X connect 44 0 45 0;
#X connect 45 0 24 0;
#X connect 47 0 24 0;
