#N canvas 515 151 667 417 12;
#X obj 56 303 dac~;
#X obj 54 226 *~ 1;
#X obj 54 38 loadbang;
#X msg 54 83 \; pd dsp 1 \;, f 20;
#X obj 54 60 delay 100 1 msec;
#X obj 54 188 adc~;
#X connect 1 0 0 0;
#X connect 1 0 0 1;
#X connect 2 0 4 0;
#X connect 4 0 3 0;
#X connect 5 0 1 0;
