#N canvas -8 -8 1920 997 12;
#X obj 339 12 r serial_moist_value;
#X obj 339 37 change;
#X floatatom 339 71 5 0 0 0 - - -;
#X obj 339 133 * 100;
#X floatatom 339 155 5 0 0 0 - - -;
#X obj 406 133 sel 0;
#X obj 438 158 s closeness;
#N canvas 766 172 745 300 cycle_1 0;
#X obj 174 12 inlet;
#X obj 43 89 bng 15 250 50 0 empty empty empty 17 7 0 10 -262144 -1
-1;
#X obj 75 132 pipe 200;
#X floatatom 43 250 5 0 0 0 - - -;
#X obj 43 272 outlet;
#X msg 174 126 \$1 600;
#X floatatom 190 162 5 0 0 0 - - -;
#X obj 174 186 line 0;
#X obj 174 209 sig~ 0;
#X obj 174 232 phasor~ 0;
#X obj 175 270 outlet~;
#X msg 74 159 0;
#X msg 43 107 0.9;
#X obj 174 37 smooth-line 60;
#X obj 43 206 smooth-line 7000;
#X text 251 148 Falta uma cycle~ a variar a frequência do phasor~
;
#X connect 0 0 13 0;
#X connect 1 0 12 0;
#X connect 2 0 11 0;
#X connect 3 0 4 0;
#X connect 5 0 7 0;
#X connect 6 0 7 0;
#X connect 7 0 8 0;
#X connect 8 0 9 0;
#X connect 9 0 10 0;
#X connect 11 0 14 0;
#X connect 12 0 2 0;
#X connect 12 0 14 0;
#X connect 13 0 5 0;
#X connect 13 0 1 0;
#X connect 14 0 3 0;
#X restore 174 267 pd cycle_1;
#X obj 156 330 *~;
#X floatatom 174 295 5 0 0 0 - - -;
#X obj 182 366 r~ cycle_2_delayed;
#X obj 157 457 delread~ cycle_1 200;
#X obj 295 427 *~ 0.5;
#N canvas 488 201 578 300 variable_delay_1 0;
#X obj 11 8 loadmess 1;
#X obj 11 32 tgl 15 0 empty empty empty 17 7 0 10 -262144 -1 -1 1 1
;
#X obj 11 62 metro-dev%, f 27;
#X obj 95 9 loadmess 1000;
#X floatatom 95 31 5 0 0 0 - - -;
#X obj 197 8 loadmess 20;
#X floatatom 197 30 5 0 0 0 - - -;
#X obj 11 86 random 5000;
#X obj 11 110 + 20;
#X floatatom 11 134 5 0 0 0 - - -;
#X msg 11 157 \$1 500;
#X obj 11 181 line 10;
#X obj 11 206 outlet;
#X text 87 165 no max o tapout recebe sinal \, aqui o delread~recebe
floats, f 20;
#X connect 0 0 1 0;
#X connect 1 0 2 0;
#X connect 2 0 7 0;
#X connect 3 0 4 0;
#X connect 4 0 2 1;
#X connect 5 0 6 0;
#X connect 6 0 2 2;
#X connect 7 0 8 0;
#X connect 8 0 9 0;
#X connect 9 0 10 0;
#X connect 10 0 11 0;
#X connect 11 0 12 0;
#X restore 24 429 pd variable_delay_1;
#X obj 495 326 *~;
#X floatatom 513 291 5 0 0 0 - - -;
#N canvas 766 172 745 300 cycle_2 0;
#X obj 175 11 inlet;
#X obj 43 89 bng 15 250 50 0 empty empty empty 17 7 0 10 -262144 -1
-1;
#X obj 75 132 pipe 200;
#X floatatom 43 250 5 0 0 0 - - -;
#X obj 43 272 outlet;
#X msg 174 126 \$1 600;
#X floatatom 190 162 5 0 0 0 - - -;
#X obj 174 186 line 0;
#X obj 174 209 sig~ 0;
#X obj 174 232 phasor~ 0;
#X obj 175 270 outlet~;
#X msg 74 159 0;
#X msg 43 107 0.9;
#X obj 175 57 smooth-line 60;
#X obj 43 206 smooth-line 7000;
#X text 251 148 Falta uma cycle~ a variar a frequência do phasor~
;
#X obj 175 34 * 1.5;
#X connect 0 0 16 0;
#X connect 1 0 12 0;
#X connect 2 0 11 0;
#X connect 3 0 4 0;
#X connect 5 0 7 0;
#X connect 6 0 7 0;
#X connect 7 0 8 0;
#X connect 8 0 9 0;
#X connect 9 0 10 0;
#X connect 11 0 14 0;
#X connect 12 0 2 0;
#X connect 12 0 14 0;
#X connect 13 0 5 0;
#X connect 13 0 1 0;
#X connect 14 0 3 0;
#X connect 16 0 13 0;
#X restore 513 263 pd cycle_2;
#X obj 521 362 r~ cycle_3_delayed;
#N canvas 249 181 578 300 variable_delay_2 0;
#X obj 11 8 loadmess 1;
#X obj 11 32 tgl 15 0 empty empty empty 17 7 0 10 -262144 -1 -1 1 1
;
#X obj 11 62 metro-dev%, f 27;
#X floatatom 95 31 5 0 0 0 - - -;
#X floatatom 197 30 5 0 0 0 - - -;
#X obj 11 110 + 20;
#X floatatom 11 134 5 0 0 0 - - -;
#X msg 11 157 \$1 500;
#X obj 11 181 line 10;
#X obj 11 206 outlet;
#X text 87 165 no max o tapout recebe sinal \, aqui o delread~recebe
floats, f 20;
#X obj 95 9 loadmess 20;
#X obj 11 86 random 7000;
#X connect 0 0 1 0;
#X connect 1 0 2 0;
#X connect 2 0 12 0;
#X connect 3 0 2 1;
#X connect 4 0 2 2;
#X connect 5 0 6 0;
#X connect 6 0 7 0;
#X connect 7 0 8 0;
#X connect 8 0 9 0;
#X connect 11 0 3 0;
#X connect 11 0 4 0;
#X connect 12 0 5 0;
#X restore 363 425 pd variable_delay_2;
#X obj 157 399 delwrite~ cycle_1 10000;
#X obj 497 481 s~ cycle_2_delayed;
#X obj 634 423 *~ 0.3;
#X obj 835 323 *~;
#X floatatom 853 288 5 0 0 0 - - -;
#X obj 974 420 *~ 0.3;
#N canvas 249 181 578 300 variable_delay_3 0;
#X obj 11 8 loadmess 1;
#X obj 11 32 tgl 15 0 empty empty empty 17 7 0 10 -262144 -1 -1 1 1
;
#X obj 11 62 metro-dev%, f 27;
#X floatatom 95 31 5 0 0 0 - - -;
#X floatatom 197 30 5 0 0 0 - - -;
#X obj 11 110 + 20;
#X floatatom 11 134 5 0 0 0 - - -;
#X msg 11 157 \$1 500;
#X obj 11 181 line 10;
#X obj 11 206 outlet;
#X text 87 165 no max o tapout recebe sinal \, aqui o delread~recebe
floats, f 20;
#X obj 11 86 random 7000;
#X obj 95 9 loadmess 500;
#X obj 197 6 loadmess 20;
#X connect 0 0 1 0;
#X connect 1 0 2 0;
#X connect 2 0 11 0;
#X connect 3 0 2 1;
#X connect 4 0 2 2;
#X connect 5 0 6 0;
#X connect 6 0 7 0;
#X connect 7 0 8 0;
#X connect 8 0 9 0;
#X connect 11 0 5 0;
#X connect 12 0 3 0;
#X connect 13 0 4 0;
#X restore 703 422 pd variable_delay_3;
#X obj 496 395 delwrite~ cycle_2 10000;
#X obj 496 453 delread~ cycle_2 200;
#X obj 835 392 delwrite~ cycle_3 10000;
#X obj 836 450 delread~ cycle_3 200;
#X obj 837 478 s~ cycle_3_delayed;
#N canvas 766 172 745 300 cycle_3 0;
#X obj 175 11 inlet;
#X obj 43 89 bng 15 250 50 0 empty empty empty 17 7 0 10 -262144 -1
-1;
#X obj 75 132 pipe 200;
#X floatatom 43 250 5 0 0 0 - - -;
#X obj 43 272 outlet;
#X msg 174 126 \$1 600;
#X floatatom 190 162 5 0 0 0 - - -;
#X obj 174 186 line 0;
#X obj 174 209 sig~ 0;
#X obj 174 232 phasor~ 0;
#X obj 175 270 outlet~;
#X msg 74 159 0;
#X msg 43 107 0.9;
#X obj 175 57 smooth-line 60;
#X obj 43 206 smooth-line 7000;
#X text 251 148 Falta uma cycle~ a variar a frequência do phasor~
;
#X obj 175 34 / 2;
#X connect 0 0 16 0;
#X connect 1 0 12 0;
#X connect 2 0 11 0;
#X connect 3 0 4 0;
#X connect 5 0 7 0;
#X connect 6 0 7 0;
#X connect 7 0 8 0;
#X connect 8 0 9 0;
#X connect 9 0 10 0;
#X connect 11 0 14 0;
#X connect 12 0 2 0;
#X connect 12 0 14 0;
#X connect 13 0 5 0;
#X connect 13 0 1 0;
#X connect 14 0 3 0;
#X connect 16 0 13 0;
#X restore 853 260 pd cycle_3;
#X obj 156 551 outlet~;
#X obj 263 11 r tickles;
#X obj 356 100 pipe 10000;
#X connect 0 0 1 0;
#X connect 1 0 2 0;
#X connect 2 0 3 0;
#X connect 2 0 34 0;
#X connect 3 0 4 0;
#X connect 4 0 5 0;
#X connect 4 0 7 0;
#X connect 4 0 16 0;
#X connect 4 0 31 0;
#X connect 5 1 6 0;
#X connect 7 0 9 0;
#X connect 7 1 8 0;
#X connect 8 0 19 0;
#X connect 9 0 8 1;
#X connect 10 0 19 0;
#X connect 11 0 12 0;
#X connect 11 0 32 0;
#X connect 12 0 19 0;
#X connect 13 0 11 0;
#X connect 14 0 26 0;
#X connect 15 0 14 1;
#X connect 16 0 15 0;
#X connect 16 1 14 0;
#X connect 17 0 26 0;
#X connect 18 0 27 0;
#X connect 21 0 26 0;
#X connect 22 0 28 0;
#X connect 23 0 22 1;
#X connect 24 0 28 0;
#X connect 25 0 29 0;
#X connect 27 0 20 0;
#X connect 27 0 21 0;
#X connect 29 0 24 0;
#X connect 29 0 30 0;
#X connect 31 0 23 0;
#X connect 31 1 22 0;
#X connect 33 0 2 0;
#X connect 34 0 3 0;
