#N canvas 65 36 812 672 12;
#X obj 137 55 r temp_val;
#X obj 300 53 r BOLD_call_freq;
#X obj 435 53 r TIMID_call_freq;
#X obj 568 53 r IMPISH_call_freq;
#X obj 137 305 * 10;
#X floatatom 137 329 5 0 0 0 - - -;
#X floatatom 162 275 5 0 0 0 - - -;
#X obj 298 165 r temp_TR;
#X obj 446 196 r whistle;
#X obj 595 165 r temp_TD;
#N canvas 580 98 450 300 syrinx 0;
#X obj 93 46 inlet;
#X floatatom 93 70 5 0 0 0 - - -;
#X msg 93 93 \$1 600;
#X obj 93 117 line~ 0;
#X obj 94 210 outlet~;
#X obj 94 153 osc~ 0;
#X obj 147 154 osc~ 5;
#X obj 93 187 *~;
#X connect 0 0 1 0;
#X connect 1 0 2 0;
#X connect 2 0 3 0;
#X connect 3 0 5 0;
#X connect 5 0 7 0;
#X connect 6 0 7 1;
#X connect 7 0 4 0;
#X restore 137 472 pd syrinx;
#X obj 330 286 loadbang;
#X text 11 306 escala os valores;
#X text 60 330 frequência;
#X text 315 366 temperatura sobe (env);
#X obj 905 276 t b;
#X text 593 281 temperatura desce (env);
#X obj 905 247 r light_beam;
#X obj 136 566 s~ leaves_sound;
#X obj 293 568 s leaves_envelope;
#X msg 295 387 0.285 200 \, 0.571 250 200 \, 0.714 500 450 \, 0.714
1000 950 \, 0.571 500 1950 \, 0.285 3000 2450 \, 0 5000 5450;
#X msg 583 307 0.571 500 \, 0.714 800 500 \, 0 800 1300;
#X msg 137 611 0.285 100 \, 0.857 120 100 \, 0.285 140 220 \, 0.857
200 360 \, 0.285 220 560 \, 0.857 310 780 \, 0.857 370 1090 \, 0 550
1460;
#X obj 435 80 unpack;
#X obj 300 80 unpack;
#X obj 568 77 unpack;
#X msg 300 110 set \$1;
#X msg 435 104 set \$1;
#X msg 568 101 set \$1;
#X msg 300 219 256;
#X msg 595 223 32;
#X msg 356 110 set \$1;
#X msg 490 103 set \$1;
#X msg 620 102 set \$1;
#X obj 298 189 t b b;
#X obj 595 189 t b b;
#X obj 448 287 random 2;
#X obj 448 311 sel 0;
#X obj 295 446 vline~, f 22;
#X obj 294 544 snapshot~;
#X obj 307 520 metro 10;
#X msg 307 495 1;
#X obj 307 471 loadbang;
#X obj 1035 330 r laugh_env;
#N canvas 565 152 705 522 laugh-envolvente 0;
#X obj 27 22 inlet;
#X obj 157 68 sel 0 1 2, f 41;
#X obj 157 44 inlet;
#X msg 156 101 1;
#X msg 192 101 0;
#X msg 250 101 1;
#X msg 286 101 0;
#X msg 347 101 1;
#X msg 383 101 0;
#X obj 156 167 tgl 15 0 empty empty empty 17 7 0 10 -262144 -1 -1 0
1;
#X obj 250 167 tgl 15 0 empty empty empty 17 7 0 10 -262144 -1 -1 1
1;
#X obj 347 167 tgl 15 0 empty empty empty 17 7 0 10 -262144 -1 -1 0
1;
#X obj 117 214 spigot;
#X obj 211 214 spigot;
#X obj 308 214 spigot;
#X msg 117 256 0.285 50 \, 0.857 100 50 \, 0.285 110 150 \, 0.857 130
260 \, -50 140 390 \, 0.857 150 530 \, 0.285 160 680 \, 0.857 170 840
\, 0.285 190 1010 \, 0.857 200 1200 \, 0 210 1400;
#X msg 211 319 0.285 50 \, 0.857 200 50 \, 0.857 230 250 \, 0.285 250
480 \, 0.857 260 730 \, 0.857 280 990 \, 0 300 1270;
#X msg 308 374 0.285 100 \, 0.871 120 100 \, 0.285 140 220 \, 0.871
200 360 \, 0.285 220 560 \, 0.871 310 780 \, 0.871 370 1090 \, 0 550
1460;
#X text 78 270 BOLD;
#X text 165 326 TIMID;
#X text 253 382 IMPISH;
#X obj 38 466 outlet;
#X connect 0 0 12 0;
#X connect 0 0 13 0;
#X connect 0 0 14 0;
#X connect 1 0 3 0;
#X connect 1 0 4 0;
#X connect 1 1 5 0;
#X connect 1 1 6 0;
#X connect 1 2 7 0;
#X connect 1 2 8 0;
#X connect 2 0 1 0;
#X connect 3 0 9 0;
#X connect 4 0 10 0;
#X connect 4 0 11 0;
#X connect 5 0 10 0;
#X connect 6 0 9 0;
#X connect 6 0 11 0;
#X connect 7 0 11 0;
#X connect 8 0 10 0;
#X connect 8 0 9 0;
#X connect 9 0 12 1;
#X connect 10 0 13 1;
#X connect 11 0 14 1;
#X connect 12 0 15 0;
#X connect 13 0 16 0;
#X connect 14 0 17 0;
#X connect 15 0 21 0;
#X connect 16 0 21 0;
#X connect 17 0 21 0;
#X restore 905 355 pd laugh-envolvente;
#X text 135 591 DEFAULT?;
#X obj 446 224 t b b;
#X obj 489 225 bng 15 250 50 0 empty empty empty 17 7 0 10 -262144
-1 -1;
#X connect 0 0 4 0;
#X connect 1 0 24 0;
#X connect 2 0 23 0;
#X connect 3 0 25 0;
#X connect 4 0 5 0;
#X connect 5 0 10 0;
#X connect 6 0 4 1;
#X connect 7 0 34 0;
#X connect 8 0 46 0;
#X connect 8 0 47 0;
#X connect 9 0 35 0;
#X connect 10 0 18 0;
#X connect 11 0 20 0;
#X connect 15 0 44 0;
#X connect 17 0 15 0;
#X connect 20 0 38 0;
#X connect 21 0 38 0;
#X connect 23 0 27 0;
#X connect 23 1 32 0;
#X connect 24 0 26 0;
#X connect 24 1 31 0;
#X connect 25 0 28 0;
#X connect 25 1 33 0;
#X connect 26 0 29 0;
#X connect 27 0 29 0;
#X connect 28 0 29 0;
#X connect 29 0 6 0;
#X connect 30 0 6 0;
#X connect 31 0 30 0;
#X connect 32 0 30 0;
#X connect 33 0 30 0;
#X connect 34 0 20 0;
#X connect 34 1 29 0;
#X connect 35 0 21 0;
#X connect 35 1 30 0;
#X connect 36 0 37 0;
#X connect 37 0 20 0;
#X connect 37 1 21 0;
#X connect 38 0 39 0;
#X connect 39 0 19 0;
#X connect 40 0 39 0;
#X connect 41 0 40 0;
#X connect 42 0 41 0;
#X connect 43 0 44 1;
#X connect 44 0 38 0;
#X connect 46 0 4 0;
#X connect 46 1 36 0;
