#N canvas 112 188 499 449 12;
#X obj 52 44 r serial_volt;
#X obj 325 81 mean-last-x-elems 10;
#X obj 52 120 expr if($f1 >= ($f2 * 1.05) \, if($f1 <= ($f2 * 2) \,
1 \, 0) \, 0);
#X obj 91 169 r serial_dark;
#X obj 52 339 spigot;
#X msg 91 230 1;
#X obj 91 302 tgl 15 0 empty empty empty 17 7 0 10 -262144 -1 -1 0
1;
#X obj 52 368 bng 15 250 50 0 empty empty empty 17 7 0 10 -262144 -1
-1;
#X obj 52 394 s light_beam;
#X msg 144 283 0;
#X obj 105 199 delay 150000;
#X obj 144 231 loadbang;
#X msg 144 256 1;
#X connect 0 0 1 0;
#X connect 0 0 2 0;
#X connect 1 0 2 1;
#X connect 2 0 4 0;
#X connect 3 0 5 0;
#X connect 4 0 7 0;
#X connect 5 0 6 0;
#X connect 6 0 4 1;
#X connect 7 0 8 0;
#X connect 7 0 9 0;
#X connect 7 0 10 0;
#X connect 9 0 6 0;
#X connect 10 0 5 0;
#X connect 11 0 12 0;
#X connect 12 0 6 0;
