#N canvas 647 175 633 597 12;
#X obj 99 85 inlet;
#N canvas 399 25 643 747 BOLD 1;
#X obj 435 139 inlet;
#X obj 29 678 outlet;
#X obj 127 676 outlet;
#X obj 29 154 r closeness;
#X obj 29 180 tgl 15 0 empty empty empty 17 7 0 10 -262144 -1 -1 78400
1;
#X obj 29 200 metro 5000;
#X obj 29 227 bng 15 250 50 0 empty empty empty 17 7 0 10 -262144 -1
-1;
#X obj 29 248 random 3;
#X obj 56 225 loadbang;
#X obj 29 272 sel 0 1 2;
#X obj 29 303 bng 15 250 50 0 empty empty empty 17 7 0 10 -262144 -1
-1;
#X obj 49 303 bng 15 250 50 0 empty empty empty 17 7 0 10 -262144 -1
-1;
#X obj 69 303 bng 15 250 50 0 empty empty empty 17 7 0 10 -262144 -1
-1;
#X obj 435 165 bng 15 250 50 0 empty empty empty 17 7 0 10 -262144
-1 -1;
#X obj 570 139 inlet;
#X obj 570 165 bng 15 250 50 0 empty empty empty 17 7 0 10 -262144
-1 -1;
#X obj 655 139 inlet;
#X obj 127 456 r singing;
#X obj 126 480 bng 15 250 50 0 empty empty empty 17 7 0 10 -262144
-1 -1;
#X msg 435 185 64 16;
#X obj 435 239 s BOLD_call_freq;
#X obj 570 185 random 5;
#X obj 570 209 + 5;
#X obj 570 239 s shyness;
#X text 435 120 call;
#X text 571 120 shyness;
#X text 655 120 laught;
#X text 30 105 envelope;
#X text 30 58 BOLD;
#X text 30 131 valores de capacitância > 700;
#X text 130 204 tempo de metro gerado pela personalidade;
#X text 127 437 melody envelope;
#X text 132 271 escolhe random de 3 envolventes possiveis por personalidade
;
#X msg 29 329 0 10 \, 1 300 10 \, 0.428 500 310 \, 1 550 810 \, 0 1500
1360 \, 1 1550 2860 \, 0 1600 4410;
#X msg 49 391 0 10 \, 1 100 10 \, 0 500 110 \, 1 550 610 \, 0 600 1160
;
#X obj 29 528 vline~;
#X msg 69 415 0 10 \, 1 200 10 \, 0.428 700 210 \, 1 750 910 \, 0 800
1660;
#X obj 127 528 vline~;
#X msg 127 501 0.785 500 \, 0.571 3000 500 \, 0 6000 3500;
#X obj 29 600 snapshot~;
#X obj 38 576 metro 100;
#X obj 67 551 loadbang;
#X obj 126 600 snapshot~;
#X obj 135 576 metro 100;
#X obj 655 187 s laugh_env;
#X msg 655 163 0;
#X floatatom 29 624 5 0 0 0 - - -;
#X floatatom 126 624 5 0 0 0 - - -;
#X connect 0 0 13 0;
#X connect 3 0 4 0;
#X connect 4 0 5 0;
#X connect 5 0 6 0;
#X connect 6 0 7 0;
#X connect 7 0 9 0;
#X connect 8 0 6 0;
#X connect 9 0 10 0;
#X connect 9 1 11 0;
#X connect 9 2 12 0;
#X connect 10 0 33 0;
#X connect 11 0 34 0;
#X connect 12 0 36 0;
#X connect 13 0 19 0;
#X connect 14 0 15 0;
#X connect 15 0 21 0;
#X connect 16 0 45 0;
#X connect 17 0 18 0;
#X connect 18 0 38 0;
#X connect 19 0 20 0;
#X connect 21 0 22 0;
#X connect 22 0 23 0;
#X connect 33 0 35 0;
#X connect 34 0 35 0;
#X connect 35 0 39 0;
#X connect 36 0 35 0;
#X connect 37 0 42 0;
#X connect 38 0 37 0;
#X connect 39 0 1 0;
#X connect 39 0 46 0;
#X connect 40 0 39 0;
#X connect 41 0 40 0;
#X connect 41 0 43 0;
#X connect 42 0 2 0;
#X connect 42 0 47 0;
#X connect 43 0 42 0;
#X connect 45 0 44 0;
#X restore 155 163 pd BOLD;
#N canvas 168 25 1111 700 TIMID 0;
#X obj 432 139 inlet;
#X obj 30 618 outlet;
#X obj 143 618 outlet;
#X obj 29 154 r closeness;
#X obj 29 180 tgl 15 0 empty empty empty 17 7 0 10 -262144 -1 -1 78400
1;
#X obj 29 227 bng 15 250 50 0 empty empty empty 17 7 0 10 -262144 -1
-1;
#X obj 29 248 random 3;
#X obj 56 225 loadbang;
#X obj 29 272 sel 0 1 2;
#X obj 29 303 bng 15 250 50 0 empty empty empty 17 7 0 10 -262144 -1
-1;
#X obj 49 303 bng 15 250 50 0 empty empty empty 17 7 0 10 -262144 -1
-1;
#X obj 69 303 bng 15 250 50 0 empty empty empty 17 7 0 10 -262144 -1
-1;
#X obj 432 165 bng 15 250 50 0 empty empty empty 17 7 0 10 -262144
-1 -1;
#X obj 567 139 inlet;
#X obj 567 165 bng 15 250 50 0 empty empty empty 17 7 0 10 -262144
-1 -1;
#X obj 652 139 inlet;
#X obj 144 435 r singing;
#X obj 144 459 bng 15 250 50 0 empty empty empty 17 7 0 10 -262144
-1 -1;
#X obj 567 185 random 5;
#X obj 567 233 s shyness;
#X text 432 120 call;
#X text 568 120 shyness;
#X text 652 120 laught;
#X text 30 105 envelope;
#X text 30 131 valores de capacitância > 700;
#X text 130 204 tempo de metro gerado pela personalidade;
#X text 132 271 escolhe random de 3 envolventes possiveis por personalidade
;
#X text 144 416 melody envelope;
#X text 30 58 TIMID;
#X obj 29 200 metro 10000;
#X obj 432 233 s TIMID_call_freq;
#X obj 567 209 + 10;
#X msg 432 185 256 32;
#X msg 29 329 0 2 \, 0.857 1000 2 \, 0.285 3000 1002 \, 0 5000 4002
;
#X msg 49 353 0 2 \, 0.857 3000 2 \, 0.714 3500 3002 \, 0.428 4000
6502 \, 0 5000 10502, f 66;
#X msg 69 379 0 2 \, 0.571 1000 2 \, 0.714 2000 1002 \, 0.857 3000
3002 \, 0 6000 6002, f 66;
#X msg 144 479 0.785 1000 \, 0 10000 1000;
#X obj 29 507 vline~;
#X obj 144 507 vline~;
#X obj 30 590 snapshot~;
#X obj 42 566 metro 100;
#X obj 143 590 snapshot~;
#X obj 155 566 metro 100;
#X obj 76 535 loadbang;
#X msg 652 163 1;
#X obj 652 187 s laugh_env;
#X connect 0 0 12 0;
#X connect 3 0 4 0;
#X connect 4 0 29 0;
#X connect 5 0 6 0;
#X connect 6 0 8 0;
#X connect 7 0 5 0;
#X connect 8 0 9 0;
#X connect 8 1 10 0;
#X connect 8 2 11 0;
#X connect 9 0 33 0;
#X connect 10 0 34 0;
#X connect 11 0 35 0;
#X connect 12 0 32 0;
#X connect 13 0 14 0;
#X connect 14 0 18 0;
#X connect 15 0 44 0;
#X connect 16 0 17 0;
#X connect 17 0 36 0;
#X connect 18 0 31 0;
#X connect 29 0 5 0;
#X connect 31 0 19 0;
#X connect 32 0 30 0;
#X connect 33 0 37 0;
#X connect 34 0 37 0;
#X connect 35 0 37 0;
#X connect 36 0 38 0;
#X connect 37 0 39 0;
#X connect 38 0 41 0;
#X connect 39 0 1 0;
#X connect 40 0 39 0;
#X connect 41 0 2 0;
#X connect 42 0 41 0;
#X connect 43 0 40 0;
#X connect 43 0 42 0;
#X connect 44 0 45 0;
#X restore 221 163 pd TIMID;
#N canvas 0 25 1280 747 IMPISH 0;
#X obj 640 139 inlet;
#X obj 28 660 outlet;
#X obj 129 660 outlet;
#X obj 29 154 r closeness;
#X obj 29 180 tgl 15 0 empty empty empty 17 7 0 10 -262144 -1 -1 78400
1;
#X obj 29 200 metro 5000;
#X obj 29 227 bng 15 250 50 0 empty empty empty 17 7 0 10 -262144 -1
-1;
#X obj 29 248 random 3;
#X obj 56 225 loadbang;
#X obj 29 272 sel 0 1 2;
#X obj 29 303 bng 15 250 50 0 empty empty empty 17 7 0 10 -262144 -1
-1;
#X obj 49 303 bng 15 250 50 0 empty empty empty 17 7 0 10 -262144 -1
-1;
#X obj 69 303 bng 15 250 50 0 empty empty empty 17 7 0 10 -262144 -1
-1;
#X obj 640 165 bng 15 250 50 0 empty empty empty 17 7 0 10 -262144
-1 -1;
#X obj 775 139 inlet;
#X obj 775 165 bng 15 250 50 0 empty empty empty 17 7 0 10 -262144
-1 -1;
#X obj 860 139 inlet;
#X obj 130 456 r singing;
#X obj 130 480 bng 15 250 50 0 empty empty empty 17 7 0 10 -262144
-1 -1;
#X obj 775 233 s shyness;
#X text 640 120 call;
#X text 776 120 shyness;
#X text 860 120 laught;
#X text 30 105 envelope;
#X text 30 131 valores de capacitância > 700;
#X text 305 159 tempo de metro gerado pela personalidade;
#X text 132 271 escolhe random de 3 envolventes possiveis por personalidade
;
#X text 130 437 melody envelope;
#X text 30 58 IMPISH;
#X obj 640 233 s IMPISH_call_freq;
#X obj 775 185 random 15;
#X msg 640 185 128 64;
#X obj 860 233 s laugh_env;
#X obj 255 114 bng 15 250 50 0 empty empty empty 17 7 0 10 -262144
-1 -1;
#X obj 255 134 random 10000;
#X obj 255 158 + 2000;
#X floatatom 96 177 5 0 0 0 - - -;
#X text 353 132 random metro sempre que triggered;
#X obj 28 621 snapshot~;
#X obj 40 597 metro 100;
#X obj 40 562 loadbang;
#X obj 29 528 vline~;
#X obj 130 528 vline~;
#X obj 129 621 snapshot~;
#X obj 141 597 metro 100;
#X msg 29 328 0 2 \, 1 50 2 \, 0.571 100 52 \, 1 150 152 \, 0.428 200
302 \, 1 250 502 \, 0 300 752, f 73;
#X msg 49 353 0 2 \, 1 100 2 \, 0.571 200 102 \, 0 250 302 \, 0.428
300 552 \, 1 350 852 \, 0 400 1202, f 76;
#X msg 73 387 0 2 \, 1 300 2 \, 0.571 450 302 \, 1 1000 852 \, 0.428
1500 1852 \, 1 1800 3352 \, 0 2000 5152;
#X msg 130 502 0.785 500 \, 0.7142 2000 500 \, 0.285 4000 2500 \, 0.7142
4500 6500 \, 0 10000 11000, f 77;
#X msg 860 163 2;
#X connect 0 0 13 0;
#X connect 3 0 4 0;
#X connect 4 0 5 0;
#X connect 5 0 6 0;
#X connect 6 0 7 0;
#X connect 7 0 9 0;
#X connect 8 0 6 0;
#X connect 9 0 10 0;
#X connect 9 1 11 0;
#X connect 9 2 12 0;
#X connect 10 0 45 0;
#X connect 11 0 46 0;
#X connect 12 0 47 0;
#X connect 13 0 31 0;
#X connect 14 0 15 0;
#X connect 15 0 30 0;
#X connect 16 0 49 0;
#X connect 17 0 18 0;
#X connect 18 0 48 0;
#X connect 30 0 19 0;
#X connect 31 0 29 0;
#X connect 33 0 34 0;
#X connect 34 0 35 0;
#X connect 35 0 36 0;
#X connect 36 0 5 1;
#X connect 38 0 1 0;
#X connect 39 0 38 0;
#X connect 40 0 39 0;
#X connect 40 0 44 0;
#X connect 41 0 38 0;
#X connect 42 0 43 0;
#X connect 43 0 2 0;
#X connect 44 0 43 0;
#X connect 45 0 41 0;
#X connect 46 0 41 0;
#X connect 47 0 41 0;
#X connect 48 0 42 0;
#X connect 49 0 32 0;
#X restore 288 163 pd IMPISH;
#X text 99 64 PERSONALITY;
#X text 10 416 water_env.;
#X text 309 424 idle_env.;
#X obj 162 121 sel 0 1 2, f 29;
#X obj 10 371 cyclone/switch 3;
#X obj 310 378 cyclone/switch 3;
#X obj 9 396 s roots_envelope;
#X obj 310 403 s idle_envelope;
#X obj 99 109 t b f f;
#X obj 114 138 + 1;
#X connect 0 0 12 0;
#X connect 1 0 8 1;
#X connect 1 1 9 1;
#X connect 2 0 8 2;
#X connect 2 1 9 2;
#X connect 3 0 8 3;
#X connect 3 1 9 3;
#X connect 7 0 1 0;
#X connect 7 0 1 1;
#X connect 7 0 1 2;
#X connect 7 1 2 0;
#X connect 7 1 2 1;
#X connect 7 1 2 2;
#X connect 7 2 3 0;
#X connect 7 2 3 1;
#X connect 7 2 3 2;
#X connect 8 0 10 0;
#X connect 9 0 11 0;
#X connect 12 0 8 0;
#X connect 12 0 9 0;
#X connect 12 1 13 0;
#X connect 12 2 7 0;
#X connect 13 0 8 0;
#X connect 13 0 9 0;
