#N canvas 0 25 1280 747 12;
#X obj 339 12 r serial_moist_value;
#X obj 339 37 change;
#X floatatom 339 71 5 0 0 0 - - -;
#X obj 339 133 * 100;
#X floatatom 339 155 5 0 0 0 - - -;
#X obj 338 216 sel 0;
#X obj 438 158 s closeness;
#X obj 156 330 *~;
#X floatatom 174 295 5 0 0 0 - - -;
#X obj 182 366 r~ cycle_2_delayed;
#X obj 157 457 delread~ cycle_1 200;
#X obj 295 427 *~ 0.5;
#N canvas 702 200 578 300 variable_delay_1 0;
#X obj 11 98 tgl 15 0 empty empty empty 17 7 0 10 -262144 -1 -1 1 1
;
#X floatatom 104 98 5 0 0 0 - - -;
#X floatatom 197 98 5 0 0 0 - - -;
#X obj 11 146 random 5000;
#X obj 11 170 + 20;
#X floatatom 11 194 5 0 0 0 - - -;
#X msg 11 217 \$1 500;
#X obj 11 241 line 10;
#X obj 11 266 outlet;
#X text 87 207 no max o tapout recebe sinal \, aqui o delread~recebe
floats, f 20;
#X obj 11 122 rtc/metro-dev%, f 27;
#X obj 11 8 loadbang;
#X msg 11 74 1;
#X msg 104 74 1000;
#X msg 197 74 20;
#X obj 11 32 delay 10;
#X connect 0 0 10 0;
#X connect 1 0 10 1;
#X connect 2 0 10 2;
#X connect 3 0 4 0;
#X connect 4 0 5 0;
#X connect 5 0 6 0;
#X connect 6 0 7 0;
#X connect 7 0 8 0;
#X connect 10 0 3 0;
#X connect 11 0 15 0;
#X connect 12 0 0 0;
#X connect 13 0 1 0;
#X connect 14 0 2 0;
#X connect 15 0 12 0;
#X connect 15 0 13 0;
#X connect 15 0 14 0;
#X restore 24 429 pd variable_delay_1;
#X obj 495 326 *~;
#X floatatom 513 291 5 0 0 0 - - -;
#X obj 521 362 r~ cycle_3_delayed;
#N canvas 690 175 578 300 variable_delay_2 0;
#X obj 11 94 tgl 15 0 empty empty empty 17 7 0 10 -262144 -1 -1 1 1
;
#X floatatom 104 94 5 0 0 0 - - -;
#X floatatom 197 94 5 0 0 0 - - -;
#X obj 11 164 + 20;
#X floatatom 11 188 5 0 0 0 - - -;
#X msg 11 211 \$1 500;
#X obj 11 235 line 10;
#X obj 11 260 outlet;
#X text 87 205 no max o tapout recebe sinal \, aqui o delread~recebe
floats, f 20;
#X obj 11 140 random 7000;
#X obj 11 116 rtc/metro-dev%, f 27;
#X obj 11 8 loadbang;
#X msg 11 70 1;
#X msg 104 70 20;
#X obj 11 32 delay 10;
#X connect 0 0 10 0;
#X connect 1 0 10 1;
#X connect 2 0 10 2;
#X connect 3 0 4 0;
#X connect 4 0 5 0;
#X connect 5 0 6 0;
#X connect 6 0 7 0;
#X connect 9 0 3 0;
#X connect 10 0 9 0;
#X connect 11 0 14 0;
#X connect 12 0 0 0;
#X connect 13 0 1 0;
#X connect 13 0 2 0;
#X connect 14 0 12 0;
#X connect 14 0 13 0;
#X restore 363 425 pd variable_delay_2;
#X obj 157 399 delwrite~ cycle_1 10000;
#X obj 496 488 s~ cycle_2_delayed;
#X obj 634 423 *~ 0.3;
#X obj 835 323 *~;
#X floatatom 853 288 5 0 0 0 - - -;
#X obj 974 420 *~ 0.3;
#N canvas 249 181 578 300 variable_delay_3 0;
#X obj 11 99 tgl 15 0 empty empty empty 17 7 0 10 -262144 -1 -1 1 1
;
#X floatatom 93 98 5 0 0 0 - - -;
#X floatatom 197 97 5 0 0 0 - - -;
#X obj 11 177 + 20;
#X floatatom 11 201 5 0 0 0 - - -;
#X msg 11 224 \$1 500;
#X obj 11 248 line 10;
#X obj 11 273 outlet;
#X text 87 232 no max o tapout recebe sinal \, aqui o delread~recebe
floats, f 20;
#X obj 11 153 random 7000;
#X obj 11 129 rtc/metro-dev%, f 27;
#X msg 11 73 1;
#X msg 93 72 500;
#X msg 197 72 20;
#X obj 11 9 loadbang;
#X obj 11 33 delay 10;
#X connect 0 0 10 0;
#X connect 1 0 10 1;
#X connect 2 0 10 2;
#X connect 3 0 4 0;
#X connect 4 0 5 0;
#X connect 5 0 6 0;
#X connect 6 0 7 0;
#X connect 9 0 3 0;
#X connect 10 0 9 0;
#X connect 11 0 0 0;
#X connect 12 0 1 0;
#X connect 13 0 2 0;
#X connect 14 0 15 0;
#X connect 15 0 11 0;
#X connect 15 0 12 0;
#X connect 15 0 13 0;
#X restore 703 422 pd variable_delay_3;
#X obj 496 395 delwrite~ cycle_2 10000;
#X obj 496 453 delread~ cycle_2 200;
#X obj 835 392 delwrite~ cycle_3 10000;
#X obj 836 450 delread~ cycle_3 200;
#X obj 836 488 s~ cycle_3_delayed;
#X obj 263 11 r tickles;
#X obj 356 100 pipe 10000;
#X obj 157 488 s~ roots_sound;
#X obj 174 267 ../abstracts/cycle-roots;
#X obj 513 238 * 1.5;
#X obj 513 264 ../abstracts/cycle-roots;
#X obj 853 261 ../abstracts/cycle-roots;
#X obj 853 235 / 2;
#X connect 0 0 1 0;
#X connect 1 0 2 0;
#X connect 2 0 3 0;
#X connect 2 0 30 0;
#X connect 3 0 4 0;
#X connect 4 0 5 0;
#X connect 4 0 32 0;
#X connect 4 0 33 0;
#X connect 4 0 36 0;
#X connect 5 1 6 0;
#X connect 7 0 17 0;
#X connect 8 0 7 1;
#X connect 9 0 17 0;
#X connect 10 0 11 0;
#X connect 10 0 31 0;
#X connect 11 0 17 0;
#X connect 12 0 10 0;
#X connect 13 0 24 0;
#X connect 14 0 13 1;
#X connect 15 0 24 0;
#X connect 16 0 25 0;
#X connect 19 0 24 0;
#X connect 20 0 26 0;
#X connect 21 0 20 1;
#X connect 22 0 26 0;
#X connect 23 0 27 0;
#X connect 25 0 18 0;
#X connect 25 0 19 0;
#X connect 27 0 22 0;
#X connect 27 0 28 0;
#X connect 29 0 2 0;
#X connect 30 0 3 0;
#X connect 32 0 8 0;
#X connect 32 1 7 0;
#X connect 33 0 34 0;
#X connect 34 0 14 0;
#X connect 34 1 13 0;
#X connect 35 0 21 0;
#X connect 35 1 20 0;
#X connect 36 0 35 0;
