#N canvas 727 150 540 379 12;
#X obj 37 38 r serial_cap;
#X obj 142 203 expr if($f1 > 1014 \, $f1 \, 0);
#X obj 60 244 expr if($f2 < 100 \, if($f1 > ($f2 *1.6) \, $f1 \, 0)
\, 0);
#X obj 37 176 expr if($f2 > 100 \, if($f1 > ($f2 * $f3) \, $f1 \, 0)
\, 0);
#X obj 37 286 s tickles;
#X obj 217 73 mean-last-x-elems 10;
#X obj 289 111 r serial_moist;
#X msg 289 135 1.1;
#X obj 398 111 r serial_dry;
#X msg 398 135 1.6;
#X text 365 73 = zl.group + zl.median;
#X obj 37 222 bng 15 250 50 0 empty empty empty 17 7 0 10 -262144 -1
-1;
#X floatatom 217 123 5 0 0 0 - - -;
#X connect 0 0 2 0;
#X connect 0 0 5 0;
#X connect 0 0 3 0;
#X connect 0 0 1 0;
#X connect 1 0 4 0;
#X connect 1 0 11 0;
#X connect 2 0 4 0;
#X connect 2 0 11 0;
#X connect 3 0 4 0;
#X connect 3 0 11 0;
#X connect 5 0 12 0;
#X connect 6 0 7 0;
#X connect 7 0 3 2;
#X connect 8 0 9 0;
#X connect 9 0 3 2;
#X connect 12 0 3 1;
#X connect 12 0 2 1;
